<?xml version="1.0" encoding="utf-8"?>
<!-- Generator: Adobe Illustrator 25.2.0, SVG Export Plug-In . SVG Version: 6.00 Build 0)  -->
<svg version="1.1" id="Layer_1" xmlns="http://www.w3.org/2000/svg" xmlns:xlink="http://www.w3.org/1999/xlink" x="0px" y="0px"
	 viewBox="0 0 1500 1500" style="enable-background:new 0 0 1500 1500;" xml:space="preserve">
<style type="text/css">
	.st0{fill:none;stroke:#000000;stroke-width:25;stroke-miterlimit:10;}
	.st1{fill:#010101;}
</style>
<path class="st0" d="M1144.49,1479.23H355.51c-183.77,0-332.74-148.97-332.74-332.74V357.51c0-183.77,148.97-332.74,332.74-332.74
	h788.98c183.77,0,332.74,148.97,332.74,332.74v788.98C1477.23,1330.26,1328.26,1479.23,1144.49,1479.23z"/>
<path class="st1" d="M660.45,762.86l316.4-263.65c26.36-22.14,29.78-61.47,7.64-87.83c-22.03-26.22-61.08-29.77-87.47-7.94
	L523.18,714.98c-26.45,22.1-29.97,61.45-7.88,87.89c2.39,2.86,5.02,5.49,7.88,7.88l373.84,311.53
	c26.48,22.01,65.78,18.39,87.79-8.09c21.97-26.43,18.41-65.64-7.96-87.68L660.45,762.86z"/>
</svg>
