<?xml version="1.0" encoding="utf-8"?>
<!-- Generator: Adobe Illustrator 25.2.0, SVG Export Plug-In . SVG Version: 6.00 Build 0)  -->
<svg version="1.1" id="Layer_1" xmlns="http://www.w3.org/2000/svg" xmlns:xlink="http://www.w3.org/1999/xlink" x="0px" y="0px"
	 viewBox="0 0 1500 1500" style="enable-background:new 0 0 1500 1500;" xml:space="preserve">
<style type="text/css">
	.st0{fill:none;stroke:#000000;stroke-width:10;stroke-miterlimit:10;}
	.st1{fill:#010101;}
</style>
<path class="st0" d="M1144.49,1479.23H355.51c-183.77,0-332.74-148.97-332.74-332.74V357.51c0-183.77,148.97-332.74,332.74-332.74
	h788.98c183.77,0,332.74,148.97,332.74,332.74v788.98C1477.23,1330.26,1328.26,1479.23,1144.49,1479.23z"/>
<path class="st1" d="M609.8,762.84l495.37-412.78c41.28-34.67,46.63-96.24,11.96-137.51c-34.49-41.06-95.63-46.61-136.95-12.43
	l-585.3,487.75c-41.41,34.59-46.93,96.2-12.34,137.61c3.74,4.47,7.86,8.6,12.34,12.34l585.3,487.75
	c41.45,34.46,102.99,28.79,137.45-12.67c34.39-41.37,28.82-102.78-12.46-137.28L609.8,762.84z"/>
</svg>
