<?xml version="1.0" encoding="utf-8"?>
<!-- Generator: Adobe Illustrator 25.2.0, SVG Export Plug-In . SVG Version: 6.00 Build 0)  -->
<svg version="1.1" id="Layer_1" xmlns="http://www.w3.org/2000/svg" xmlns:xlink="http://www.w3.org/1999/xlink" x="0px" y="0px"
	 viewBox="0 0 1500 1500" style="enable-background:new 0 0 1500 1500;" xml:space="preserve">
<style type="text/css">
	.st0{fill:none;stroke:#000000;stroke-width:20;stroke-miterlimit:10;}
	.st1{fill:#010101;}
</style>
<path d="M610.54,1145.57c0-13.42,0-26.85,0-40.27c0.01-41.8-0.15-83.61,0.25-125.41c0.04-4.57,2.22-10.08,5.25-13.51
	C727.32,840.63,838.8,715.07,950.26,589.49c1.13-1.27,2.19-2.6,2.52-4.87c-3.69,3-7.42,5.96-11.07,9.01
	C827.78,688.72,713.86,783.81,600,878.96c-3.7,3.09-6.46,5.29-11.85,2.39c-78.69-42.29-157.52-84.32-236.31-126.43
	c-0.98-0.53-1.85-1.26-4.12-2.82c263.34-131.91,525.89-263.42,790.07-395.75c-29.36,250.02-58.51,498.31-87.84,748.04
	c-100.55-45.86-200.04-91.23-300.18-136.9c-45.95,59.82-91.68,119.34-137.41,178.87C611.76,1146.1,611.15,1145.84,610.54,1145.57z"
	/>
<path class="st0" d="M1144.49,1479.23H355.51c-183.77,0-332.74-148.97-332.74-332.74V357.51c0-183.77,148.97-332.74,332.74-332.74
	h788.98c183.77,0,332.74,148.97,332.74,332.74v788.98C1477.23,1330.26,1328.26,1479.23,1144.49,1479.23z"/>
</svg>
