<?xml version="1.0" encoding="utf-8"?>
<!-- Generator: Adobe Illustrator 25.2.0, SVG Export Plug-In . SVG Version: 6.00 Build 0)  -->
<svg version="1.1" id="Layer_1" xmlns="http://www.w3.org/2000/svg" xmlns:xlink="http://www.w3.org/1999/xlink" x="0px" y="0px"
	 viewBox="0 0 1500 1500" style="enable-background:new 0 0 1500 1500;" xml:space="preserve">
<style type="text/css">
	.st0{fill:none;stroke:#000000;stroke-width:10;stroke-miterlimit:10;}
	.st1{fill:#010101;}
</style>
<path d="M560.31,1295.35c0-18.52,0-37.05,0-55.57c0.01-57.69-0.21-115.37,0.35-173.05c0.06-6.3,3.06-13.91,7.25-18.65
	c153.54-173.53,307.39-346.79,461.19-520.1c1.56-1.75,3.02-3.59,3.48-6.73c-5.1,4.14-10.24,8.23-15.28,12.44
	c-157.2,131.22-314.41,262.44-471.54,393.76c-5.1,4.27-8.92,7.3-16.36,3.3c-108.59-58.36-217.37-116.36-326.1-174.47
	c-1.36-0.72-2.56-1.74-5.68-3.89c363.4-182.02,725.71-363.51,1090.27-546.11c-40.51,345.01-80.74,687.65-121.21,1032.26
	c-138.76-63.28-276.05-125.9-414.24-188.92c-63.41,82.55-126.51,164.69-189.62,246.84C561.99,1296.09,561.15,1295.72,560.31,1295.35
	z"/>
<path class="st0" d="M1144.49,1479.23H355.51c-183.77,0-332.74-148.97-332.74-332.74V357.51c0-183.77,148.97-332.74,332.74-332.74
	h788.98c183.77,0,332.74,148.97,332.74,332.74v788.98C1477.23,1330.26,1328.26,1479.23,1144.49,1479.23z"/>
</svg>
