<?xml version="1.0" encoding="utf-8"?>
<!-- Generator: Adobe Illustrator 25.2.0, SVG Export Plug-In . SVG Version: 6.00 Build 0)  -->
<svg version="1.1" id="Layer_1" xmlns="http://www.w3.org/2000/svg" xmlns:xlink="http://www.w3.org/1999/xlink" x="0px" y="0px"
	 viewBox="0 0 1500 1500" style="enable-background:new 0 0 1500 1500;" xml:space="preserve">
<style type="text/css">
	.st0{fill:none;stroke:#000000;stroke-width:25;stroke-miterlimit:10;}
	.st1{fill:#010101;}
</style>
<path d="M619.66,1118.38c0-12.5,0-25,0-37.49c0-38.92-0.14-77.84,0.23-116.75c0.04-4.25,2.06-9.39,4.89-12.58
	c103.59-117.08,207.39-233.97,311.15-350.9c1.05-1.18,2.04-2.42,2.35-4.54c-3.44,2.79-6.91,5.55-10.31,8.39
	c-106.06,88.53-212.12,177.06-318.13,265.66c-3.44,2.88-6.02,4.93-11.04,2.23c-73.26-39.37-146.66-78.5-220.01-117.71
	c-0.91-0.49-1.73-1.17-3.83-2.63c245.17-122.81,489.61-245.25,735.57-368.45c-27.33,232.77-54.48,463.94-81.78,696.44
	c-93.62-42.7-186.24-84.94-279.47-127.46c-42.78,55.69-85.35,111.11-127.93,166.53C620.8,1118.87,620.23,1118.62,619.66,1118.38z"/>
<path class="st0" d="M1144.49,1479.23H355.51c-183.77,0-332.74-148.97-332.74-332.74V357.51c0-183.77,148.97-332.74,332.74-332.74
	h788.98c183.77,0,332.74,148.97,332.74,332.74v788.98C1477.23,1330.26,1328.26,1479.23,1144.49,1479.23z"/>
</svg>
